# xmcd
#
# Track frame offsets:
#	150
#	14597
#	31494
#	45335
#	60712
#	76430
#	87857
#	102200
#	117605
#	129755
#	142680
#	157547
#	172560
#	186630
#	202607
#	217140
#	233140
#	247690
#	261495
#	280170
#
# Disc length: 3924 seconds
#
# Revision: 1
# Processed by: cddbd v1.4PL0 Copyright (c) Steve Scherf et al.
# Submitted via: audiograbber 1.80
#
DISCID=010f5214
DTITLE=diverse - Hits På Dansktoppen 3
DYEAR=1900
DGENRE=
TTITLE0=Johnny Hansen - Hvem Tænder Stjernene
TTITLE1=Tina Siel - Hvor Hjerterne Bor
TTITLE2=Kim and Hallo - Jeg Har En Ven
TTITLE3=Bjørn and Okay - Dig Vil Jeg Elske
TTITLE4=Birthe Kjær - Ser Jeg Dig Snart Igen
TTITLE5=Kandis - Rosalita
TTITLE6=Jutlandia - Du Var Ung
TTITLE7=Klaus and Servants - Som En Vind
TTITLE8=Jan Larsen - En Sommerdag
TTITLE9=Richard Ragnvald - Bahama
TTITLE10=Keld and Hilda - Her I Vores Hus
TTITLE11=Bjørn Tidmand - Hej Hej Godmorgen
TTITLE12=Michael Winckler - Solen, Månen Og Stjernerne
TTITLE13=Kisser and Søren - En Dag Som I Dag
TTITLE14=Jan and Sunny Boys - Dragkisten
TTITLE15=Lis and Per - Jeg Vil Dele Alle Dage Med Dig
TTITLE16=Skipper and Co - Farmor
TTITLE17=Jacob Haugaard - Grinesangen
TTITLE18=Santa - Sigurd and Amanda
TTITLE19=Lene Holme Larsen - Vi Ses Snart Igen
EXTD=
EXTT0=
EXTT1=
EXTT2=
EXTT3=
EXTT4=
EXTT5=
EXTT6=
EXTT7=
EXTT8=
EXTT9=
EXTT10=
EXTT11=
EXTT12=
EXTT13=
EXTT14=
EXTT15=
EXTT16=
EXTT17=
EXTT18=
EXTT19=
PLAYORDER=
